<svg width="898" height="652" viewBox="0 0 898 652" fill="none" xmlns="http://www.w3.org/2000/svg">
<g opacity="0.2">
<path d="M834.581 521.292C805.417 721.735 618.669 861.067 417.25 832.207C215.83 803.346 76.4272 617.281 105.592 416.838C134.756 216.394 321.504 77.062 522.923 105.923C724.343 134.783 863.746 320.848 834.581 521.292Z" stroke="#D9DBE9" stroke-width="80"/>
<mask id="mask0_7711_13702" style="mask-type:alpha" maskUnits="userSpaceOnUse" x="42" y="43" width="611" height="660">
<path d="M420.942 55.1658L640.751 227.428L274.156 690.836L54.3479 518.574L420.942 55.1658Z" fill="#C4C4C4" stroke="#F7A32C" stroke-width="16.9011"/>
</mask>
<g mask="url(#mask0_7711_13702)">
<mask id="path-3-inside-1_7711_13702" fill="white">
<path fill-rule="evenodd" clip-rule="evenodd" d="M327.481 649.33C427.293 727.549 572.057 710.249 650.819 610.689C729.582 511.128 712.519 367.01 612.707 288.791C512.895 210.572 368.132 227.872 289.369 327.432C210.606 426.992 227.67 571.111 327.481 649.33ZM281.477 707.482C413.486 810.933 604.948 788.051 709.118 656.375C813.288 524.699 790.72 334.09 658.711 230.639C526.702 127.188 335.241 150.069 231.071 281.746C126.9 413.422 149.468 604.031 281.477 707.482Z"/>
</mask>
<path fill-rule="evenodd" clip-rule="evenodd" d="M327.481 649.33C427.293 727.549 572.057 710.249 650.819 610.689C729.582 511.128 712.519 367.01 612.707 288.791C512.895 210.572 368.132 227.872 289.369 327.432C210.606 426.992 227.67 571.111 327.481 649.33ZM281.477 707.482C413.486 810.933 604.948 788.051 709.118 656.375C813.288 524.699 790.72 334.09 658.711 230.639C526.702 127.188 335.241 150.069 231.071 281.746C126.9 413.422 149.468 604.031 281.477 707.482Z" fill="white"/>
<path d="M584.341 558.592C534.551 621.53 443.037 632.467 379.94 583.02L275.023 715.641C411.549 822.632 609.562 798.968 717.298 662.785L584.341 558.592ZM560.248 355.101C623.345 404.548 634.132 495.654 584.341 558.592L717.298 662.785C825.033 526.603 801.692 329.471 665.166 222.48L560.248 355.101ZM355.847 379.529C405.638 316.591 497.151 305.654 560.248 355.101L665.166 222.48C528.639 115.489 330.626 139.153 222.891 275.336L355.847 379.529ZM379.94 583.02C316.843 533.573 306.056 442.467 355.847 379.529L222.891 275.336C115.156 411.518 138.496 608.649 275.023 715.641L379.94 583.02ZM642.64 604.279C567.442 699.333 429.23 715.85 333.936 641.171L229.019 773.792C397.742 906.015 642.454 876.77 775.596 708.472L642.64 604.279ZM606.252 296.95C701.547 371.629 717.838 509.224 642.64 604.279L775.596 708.472C908.738 540.173 879.894 296.552 711.17 164.329L606.252 296.95ZM297.549 333.842C372.747 238.788 510.958 222.271 606.252 296.95L711.17 164.329C542.446 32.1057 297.735 61.3506 164.593 229.649L297.549 333.842ZM333.936 641.171C238.642 566.492 222.351 428.896 297.549 333.842L164.593 229.649C31.4501 397.948 60.2946 641.569 229.019 773.792L333.936 641.171Z" fill="#D9DBE9" mask="url(#path-3-inside-1_7711_13702)"/>
<mask id="path-5-inside-2_7711_13702" fill="white">
<path fill-rule="evenodd" clip-rule="evenodd" d="M391.885 567.918C446.62 610.812 526.007 601.325 569.199 546.727C612.392 492.13 603.034 413.097 548.299 370.202C493.563 327.308 414.177 336.795 370.984 391.393C327.792 445.99 337.149 525.023 391.885 567.918ZM345.881 626.069C432.813 694.195 558.898 679.127 627.498 592.414C696.097 505.7 681.236 380.177 594.303 312.051C507.37 243.925 381.286 258.993 312.686 345.706C244.086 432.42 258.948 557.943 345.881 626.069Z"/>
</mask>
<path fill-rule="evenodd" clip-rule="evenodd" d="M391.885 567.918C446.62 610.812 526.007 601.325 569.199 546.727C612.392 492.13 603.034 413.097 548.299 370.202C493.563 327.308 414.177 336.795 370.984 391.393C327.792 445.99 337.149 525.023 391.885 567.918ZM345.881 626.069C432.813 694.195 558.898 679.127 627.498 592.414C696.097 505.7 681.236 380.177 594.303 312.051C507.37 243.925 381.286 258.993 312.686 345.706C244.086 432.42 258.948 557.943 345.881 626.069Z" fill="white"/>
<path d="M502.721 494.63C488.501 512.606 462.364 515.729 444.343 501.607L339.426 634.228C430.876 705.894 563.512 690.043 635.677 598.824L502.721 494.63ZM495.84 436.513C513.861 450.635 516.941 476.655 502.721 494.63L635.677 598.824C707.842 507.604 692.208 375.558 600.757 303.892L495.84 436.513ZM437.462 443.489C451.683 425.514 477.819 422.391 495.84 436.513L600.757 303.892C509.307 232.225 376.671 248.077 304.506 339.296L437.462 443.489ZM444.343 501.607C426.323 487.485 423.242 461.465 437.462 443.489L304.506 339.296C232.341 430.516 247.976 562.562 339.426 634.228L444.343 501.607ZM561.02 540.317C521.392 590.408 448.557 599.113 398.339 559.759L293.422 692.38C417.069 789.278 596.403 767.846 693.976 644.51L561.02 540.317ZM541.844 378.361C592.062 417.716 600.647 490.226 561.02 540.317L693.976 644.51C791.548 521.174 770.409 342.639 646.762 245.74L541.844 378.361ZM379.164 397.803C418.792 347.712 491.626 339.007 541.844 378.361L646.762 245.74C523.114 148.842 343.78 170.274 246.208 293.61L379.164 397.803ZM398.339 559.759C348.121 520.404 339.536 447.894 379.164 397.803L246.208 293.61C148.636 416.946 169.774 595.481 293.422 692.38L398.339 559.759Z" fill="#D9DBE9" mask="url(#path-5-inside-2_7711_13702)"/>
</g>
<path d="M652.167 272.973C642.361 285.368 624.337 287.522 611.91 277.783C599.482 268.044 597.358 250.1 607.164 237.705C616.97 225.309 634.994 223.155 647.421 232.895C659.849 242.634 661.973 260.577 652.167 272.973Z" fill="#D9DBE9" stroke="#D9DBE9" stroke-width="16.9011"/>
<path d="M587.844 354.309C578.037 366.704 560.014 368.858 547.586 359.119C535.158 349.38 533.034 331.436 542.84 319.041C552.646 306.645 570.67 304.491 583.098 314.231C595.525 323.97 597.65 341.913 587.844 354.309Z" fill="#D9DBE9" stroke="#D9DBE9" stroke-width="16.9011"/>
<path d="M385.668 609.939C375.862 622.334 357.838 624.488 345.411 614.749C332.983 605.01 330.859 587.066 340.665 574.671C350.471 562.275 368.495 560.121 380.922 569.86C393.35 579.599 395.474 597.543 385.668 609.939Z" fill="#D9DBE9" stroke="#D9DBE9" stroke-width="16.9011"/>
<path d="M321.346 691.257C311.539 703.653 293.515 705.807 281.088 696.067C268.66 686.328 266.536 668.385 276.342 655.989C286.148 643.594 304.172 641.44 316.6 651.179C329.027 660.918 331.152 678.862 321.346 691.257Z" fill="#D9DBE9" stroke="#D9DBE9" stroke-width="16.9011"/>
</g>
</svg>
