<svg width="180" height="32" viewBox="0 0 180 32" fill="none" xmlns="http://www.w3.org/2000/svg">
<circle cx="16.0627" cy="16.0625" r="14.1357" stroke="#F7A32C" stroke-width="3.27785"/>
<mask id="mask0_10126_8887" style="mask-type:alpha" maskUnits="userSpaceOnUse" x="-1" y="0" width="23" height="27">
<path d="M11.7588 -6.10352e-05L21.6942 5.73617L9.93496 26.1038L-0.000490441 20.3676L11.7588 -6.10352e-05Z" fill="#C4C4C4"/>
</mask>
<g mask="url(#mask0_10126_8887)">
<path fill-rule="evenodd" clip-rule="evenodd" d="M11.6174 23.7634C15.87 26.2186 21.3077 24.7616 23.763 20.509C26.2182 16.2564 24.7611 10.8187 20.5086 8.36344C16.256 5.90821 10.8182 7.36525 8.36301 11.6178C5.90779 15.8704 7.36483 21.3082 11.6174 23.7634ZM10.1833 26.2472C15.8077 29.4945 22.9996 27.5674 26.2468 21.9431C29.4941 16.3187 27.567 9.12681 21.9426 5.87958C16.3182 2.63234 9.12638 4.5594 5.87915 10.1838C2.63192 15.8081 4.55897 23 10.1833 26.2472Z" fill="#F7A02C"/>
<path fill-rule="evenodd" clip-rule="evenodd" d="M13.6251 20.286C15.9571 21.6324 18.9391 20.8334 20.2856 18.5013C21.632 16.1693 20.8329 13.1873 18.5009 11.8409C16.1688 10.4945 13.1868 11.2935 11.8404 13.6255C10.494 15.9576 11.293 18.9396 13.6251 20.286ZM12.191 22.7699C15.8949 24.9083 20.631 23.6392 22.7694 19.9354C24.9078 16.2315 23.6388 11.4954 19.9349 9.357C16.2311 7.21858 11.495 8.48762 9.35656 12.1915C7.21814 15.8953 8.48717 20.6314 12.191 22.7699Z" fill="#F7A02C"/>
</g>
<circle cx="20.9771" cy="6.97813" r="1.43406" transform="rotate(30 20.9771 6.97813)" fill="#F7A02C"/>
<circle cx="18.9697" cy="10.4555" r="1.43406" transform="rotate(30 18.9697 10.4555)" fill="#F7A02C"/>
<ellipse cx="12.6597" cy="21.3846" rx="1.43406" ry="1.43406" transform="rotate(30 12.6597 21.3846)" fill="#F7A02C"/>
<ellipse cx="10.6519" cy="24.8619" rx="1.43406" ry="1.43406" transform="rotate(30 10.6519 24.8619)" fill="#F7A02C"/>
<path d="M42.504 25.448C40.0933 25.448 38.0773 24.6373 36.456 23.016C34.856 21.3947 34.056 19.3893 34.056 17C34.056 14.6107 34.856 12.6053 36.456 10.984C38.0773 9.36267 40.0933 8.552 42.504 8.552C44.0613 8.552 45.48 8.92533 46.76 9.672C48.04 10.4187 49.0107 11.4213 49.672 12.68L46.12 14.76C45.8 14.0987 45.3093 13.576 44.648 13.192C44.008 12.808 43.2827 12.616 42.472 12.616C41.2347 12.616 40.2107 13.032 39.4 13.864C38.5893 14.6747 38.184 15.72 38.184 17C38.184 18.2587 38.5893 19.304 39.4 20.136C40.2107 20.9467 41.2347 21.352 42.472 21.352C43.304 21.352 44.04 21.1707 44.68 20.808C45.3413 20.424 45.832 19.9013 46.152 19.24L49.736 21.288C49.032 22.5467 48.04 23.56 46.76 24.328C45.48 25.0747 44.0613 25.448 42.504 25.448ZM63.7013 23.016C62.0586 24.6373 60.0533 25.448 57.6853 25.448C55.3172 25.448 53.3119 24.6373 51.6692 23.016C50.0479 21.3733 49.2372 19.368 49.2372 17C49.2372 14.632 50.0479 12.6373 51.6692 11.016C53.3119 9.37333 55.3172 8.552 57.6853 8.552C60.0533 8.552 62.0586 9.37333 63.7013 11.016C65.3439 12.6373 66.1653 14.632 66.1653 17C66.1653 19.368 65.3439 21.3733 63.7013 23.016ZM54.5812 20.168C55.4132 21 56.4479 21.416 57.6853 21.416C58.9226 21.416 59.9573 21 60.7893 20.168C61.6213 19.336 62.0373 18.28 62.0373 17C62.0373 15.72 61.6213 14.664 60.7893 13.832C59.9573 13 58.9226 12.584 57.6853 12.584C56.4479 12.584 55.4132 13 54.5812 13.832C53.7706 14.664 53.3652 15.72 53.3652 17C53.3652 18.28 53.7706 19.336 54.5812 20.168ZM79.6292 9H83.7572V25H79.6292V23.112C78.3919 24.6693 76.6532 25.448 74.4132 25.448C72.2799 25.448 70.4452 24.6373 68.9092 23.016C67.3946 21.3733 66.6372 19.368 66.6372 17C66.6372 14.632 67.3946 12.6373 68.9092 11.016C70.4452 9.37333 72.2799 8.552 74.4132 8.552C76.6532 8.552 78.3919 9.33067 79.6292 10.888V9ZM72.0132 20.264C72.8452 21.096 73.9012 21.512 75.1812 21.512C76.4612 21.512 77.5172 21.096 78.3492 20.264C79.2026 19.4107 79.6292 18.3227 79.6292 17C79.6292 15.6773 79.2026 14.6 78.3492 13.768C77.5172 12.9147 76.4612 12.488 75.1812 12.488C73.9012 12.488 72.8452 12.9147 72.0132 13.768C71.1812 14.6 70.7652 15.6773 70.7652 17C70.7652 18.3227 71.1812 19.4107 72.0132 20.264ZM93.5165 25.448C91.1058 25.448 89.0898 24.6373 87.4685 23.016C85.8685 21.3947 85.0685 19.3893 85.0685 17C85.0685 14.6107 85.8685 12.6053 87.4685 10.984C89.0898 9.36267 91.1058 8.552 93.5165 8.552C95.0738 8.552 96.4925 8.92533 97.7725 9.672C99.0525 10.4187 100.023 11.4213 100.685 12.68L97.1325 14.76C96.8125 14.0987 96.3218 13.576 95.6605 13.192C95.0205 12.808 94.2952 12.616 93.4845 12.616C92.2472 12.616 91.2232 13.032 90.4125 13.864C89.6018 14.6747 89.1965 15.72 89.1965 17C89.1965 18.2587 89.6018 19.304 90.4125 20.136C91.2232 20.9467 92.2472 21.352 93.4845 21.352C94.3165 21.352 95.0525 21.1707 95.6925 20.808C96.3538 20.424 96.8445 19.9013 97.1645 19.24L100.749 21.288C100.045 22.5467 99.0525 23.56 97.7725 24.328C96.4925 25.0747 95.0738 25.448 93.5165 25.448ZM110.228 8.552C111.977 8.552 113.417 9.13867 114.548 10.312C115.7 11.4853 116.276 13.1067 116.276 15.176V25H112.148V15.688C112.148 14.6213 111.86 13.8107 111.284 13.256C110.708 12.68 109.94 12.392 108.98 12.392C107.913 12.392 107.06 12.7227 106.42 13.384C105.78 14.0453 105.46 15.0373 105.46 16.36V25H101.332V2.6H105.46V10.792C106.462 9.29867 108.052 8.552 110.228 8.552ZM135.897 8.552C137.731 8.552 139.193 9.14933 140.281 10.344C141.39 11.5387 141.945 13.1387 141.945 15.144V25H137.817V15.432C137.817 14.472 137.582 13.7253 137.113 13.192C136.643 12.6587 135.982 12.392 135.128 12.392C134.19 12.392 133.454 12.7013 132.921 13.32C132.409 13.9387 132.153 14.8347 132.153 16.008V25H128.025V15.432C128.025 14.472 127.79 13.7253 127.321 13.192C126.851 12.6587 126.19 12.392 125.337 12.392C124.419 12.392 123.683 12.7013 123.129 13.32C122.595 13.9387 122.329 14.8347 122.329 16.008V25H118.201V9H122.329V10.696C123.289 9.26667 124.771 8.552 126.777 8.552C128.739 8.552 130.19 9.32 131.129 10.856C132.195 9.32 133.785 8.552 135.897 8.552ZM145.899 7.08C145.216 7.08 144.619 6.83467 144.107 6.344C143.616 5.832 143.371 5.23466 143.371 4.552C143.371 3.86933 143.616 3.272 144.107 2.76C144.619 2.248 145.216 1.992 145.899 1.992C146.603 1.992 147.2 2.248 147.691 2.76C148.203 3.272 148.459 3.86933 148.459 4.552C148.459 5.23466 148.203 5.832 147.691 6.344C147.2 6.83467 146.603 7.08 145.899 7.08ZM143.851 25V9H147.979V25H143.851ZM153.645 18.696C154.199 20.7013 155.703 21.704 158.157 21.704C159.735 21.704 160.93 21.1707 161.741 20.104L165.069 22.024C163.49 24.3067 161.165 25.448 158.093 25.448C155.447 25.448 153.325 24.648 151.725 23.048C150.125 21.448 149.325 19.432 149.325 17C149.325 14.5893 150.114 12.584 151.693 10.984C153.271 9.36267 155.298 8.552 157.773 8.552C160.119 8.552 162.05 9.36267 163.565 10.984C165.101 12.6053 165.869 14.6107 165.869 17C165.869 17.5333 165.815 18.0987 165.709 18.696H153.645ZM153.581 15.496H161.741C161.506 14.408 161.015 13.5973 160.269 13.064C159.543 12.5307 158.711 12.264 157.773 12.264C156.663 12.264 155.746 12.552 155.021 13.128C154.295 13.6827 153.815 14.472 153.581 15.496Z" fill="#22215B"/>
</svg>
