<svg width="24" height="23" viewBox="0 0 24 23" fill="none" xmlns="http://www.w3.org/2000/svg">
<path d="M21.5007 0.587036H3.42928C2.77571 0.587036 2.14891 0.833966 1.68677 1.2735C1.22463 1.71304 0.964996 2.30919 0.964996 2.93079L0.964996 20.1183C0.964996 20.7399 1.22463 21.336 1.68677 21.7756C2.14891 22.2151 2.77571 22.462 3.42928 22.462H10.4756V15.025H7.24122V11.5245H10.4756V8.85657C10.4756 5.8219 12.3752 4.14563 15.2846 4.14563C16.6779 4.14563 18.1349 4.38196 18.1349 4.38196V7.36047H16.5295C14.9478 7.36047 14.4544 8.29407 14.4544 9.25159V11.5245H17.9855L17.4208 15.025H14.4544V22.462H21.5007C22.1543 22.462 22.7811 22.2151 23.2432 21.7756C23.7054 21.336 23.965 20.7399 23.965 20.1183V2.93079C23.965 2.30919 23.7054 1.71304 23.2432 1.2735C22.7811 0.833966 22.1543 0.587036 21.5007 0.587036Z" fill="#121212"/>
</svg>
