<svg width="24" height="23" viewBox="0 0 24 23" fill="none" xmlns="http://www.w3.org/2000/svg">
<path fill-rule="evenodd" clip-rule="evenodd" d="M0.972061 1.98078C0.972061 1.473 1.17378 0.986018 1.53283 0.626964C1.89188 0.26791 2.37887 0.0661952 2.88664 0.0661952H21.9721C22.2237 0.0657842 22.473 0.115011 22.7055 0.211056C22.9381 0.307102 23.1495 0.44808 23.3275 0.62592C23.5056 0.80376 23.6468 1.01497 23.7431 1.24746C23.8394 1.47994 23.8889 1.72914 23.8887 1.98078V21.0662C23.889 21.3179 23.8396 21.5672 23.7435 21.7998C23.6473 22.0323 23.5063 22.2437 23.3283 22.4217C23.1504 22.5997 22.9391 22.7409 22.7066 22.8372C22.474 22.9335 22.2248 22.983 21.9731 22.9829H2.88664C2.63513 22.9829 2.38608 22.9333 2.15372 22.837C1.92137 22.7407 1.71026 22.5996 1.53246 22.4217C1.35466 22.2438 1.21366 22.0326 1.1175 21.8002C1.02135 21.5678 0.971925 21.3187 0.972061 21.0672V1.98078ZM10.0429 8.80369H13.146V10.362C13.5939 9.46619 14.7398 8.65994 16.4616 8.65994C19.7627 8.65994 20.545 10.4443 20.545 13.7183V19.7829H17.2044V14.4641C17.2044 12.5995 16.7564 11.5474 15.6189 11.5474C14.0408 11.5474 13.3846 12.6818 13.3846 14.4641V19.7829H10.0429V8.80369ZM4.31373 19.6402H7.6554V8.65994H4.31373V19.6391V19.6402ZM8.13352 5.07869C8.13982 5.36481 8.08891 5.64931 7.98377 5.91548C7.87863 6.18165 7.72139 6.42415 7.52126 6.62873C7.32114 6.83331 7.08216 6.99585 6.81837 7.10683C6.55457 7.2178 6.27127 7.27496 5.98508 7.27496C5.6989 7.27496 5.41559 7.2178 5.1518 7.10683C4.888 6.99585 4.64903 6.83331 4.4489 6.62873C4.24878 6.42415 4.09153 6.18165 3.9864 5.91548C3.88126 5.64931 3.83034 5.36481 3.83664 5.07869C3.84901 4.51708 4.0808 3.98264 4.48236 3.58983C4.88392 3.19701 5.42334 2.97705 5.98508 2.97705C6.54683 2.97705 7.08624 3.19701 7.48781 3.58983C7.88937 3.98264 8.12115 4.51708 8.13352 5.07869Z" fill="#121212"/>
</svg>
