<svg width="24" height="20" viewBox="0 0 24 20" fill="none" xmlns="http://www.w3.org/2000/svg">
<path d="M23.643 3.00322C22.808 3.37322 21.911 3.62322 20.968 3.73622C21.941 3.15402 22.6689 2.23769 23.016 1.15822C22.1018 1.70121 21.1013 2.08342 20.058 2.28822C19.3564 1.53909 18.4271 1.04255 17.4143 0.875698C16.4016 0.708846 15.3621 0.881015 14.4572 1.36548C13.5524 1.84994 12.8328 2.61959 12.4102 3.55493C11.9875 4.49027 11.8855 5.53897 12.12 6.53822C10.2677 6.44522 8.45563 5.96377 6.80142 5.12513C5.14722 4.28648 3.68784 3.10939 2.518 1.67022C2.118 2.36022 1.888 3.16022 1.888 4.01222C1.88755 4.77922 2.07643 5.53447 2.43788 6.21096C2.79932 6.88745 3.32216 7.46426 3.96 7.89022C3.22028 7.86669 2.49687 7.66681 1.85 7.30722V7.36722C1.84993 8.44296 2.22203 9.4856 2.90318 10.3182C3.58433 11.1508 4.53257 11.7222 5.587 11.9352C4.90078 12.1209 4.18134 12.1483 3.483 12.0152C3.7805 12.9408 4.36 13.7502 5.14037 14.3301C5.92074 14.91 6.86292 15.2314 7.835 15.2492C6.18483 16.5446 4.14689 17.2473 2.049 17.2442C1.67738 17.2443 1.30608 17.2226 0.937 17.1792C3.06648 18.5484 5.54534 19.275 8.077 19.2722C16.647 19.2722 21.332 12.1742 21.332 6.01822C21.332 5.81822 21.327 5.61622 21.318 5.41622C22.2293 4.7572 23.0159 3.94112 23.641 3.00622L23.643 3.00322Z" fill="#121212"/>
</svg>
